<?xml version="1.0" encoding="UTF-8"?>
<svg id="Layer_2" data-name="Layer 2" xmlns="http://www.w3.org/2000/svg" viewBox="0 0 388.83 384.74">
  <defs>
    <style>
      .cls-1 {
        fill: #a62427;
      }

      .cls-1, .cls-2 {
        stroke-width: 0px;
      }

      .cls-2 {
        fill: #f5f6f7;
      }
    </style>
  </defs>
  <g id="Layer_1-2" data-name="Layer 1">
    <g>
      <path class="cls-1" d="M186.89.22c44.7-2.12,97.67,11.2,133,39.5,16.35-3.96,11.93,10.68,12.25,11.75.74,2.49,26.66,36.68,30,42.5,13.85,1.32,19.44,7.87,12.5,21,24.28,58.15,14.85,110.44-9,166.5-1.91,4.49-8.41,15.58-8.5,16.5-.08.87,1.79,4.91,1.5,7-.51,1.2-8.26,2.93-8.75,3.25-1.67,1.11-16.94,24.91-25.75,30.75-13.49,26.34-51.77,36.03-78.75,40.75-40.11,7.01-62.58,7.26-102-3-8.49-2.21-29.86-9.83-31.5-10-3.94-.42-14.98,5.06-20.75-9.75-12.38-8.75-22.81-19.89-32.5-31.5-11.85-14.19-36.22-46.96-43-63-2.94-6.96-11.54-35.66-13-43-12.01-60.48,20.84-100.47,21-106,.03-1.13-7.28-12.5,9.75-15.25l11.75-15.25c-1.92-10.69,5.28-18.3,15.75-19.25C92.69,26.47,137.66,2.56,186.89.22Z"/>
      <path class="cls-2" d="M216.39,155.72l14.25.75c-6.73,23.87-16.15,46.82-23.5,70.5l-15.25.75c-8.18-23.23-13.46-47.43-22.75-70.25l17-.5,13.75,52.75,16.5-54Z"/>
      <path class="cls-2" d="M81.39,154.22c5.79-.4,11.76.24,17.5,1,1.93,20.64-.74,3.38-24,9.5-23.17,6.09-19,36.31-11.75,43.75,6.91,7.1,26.34,9.27,35.75,6.25.91,15.62-36.98,18.81-50.25.75-13.46-18.31-5.94-58.57,32.75-61.25Z"/>
      <path class="cls-2" d="M234.39,156.22l14.25.75-1.25,70.75-13.75-.75.75-70.75Z"/>
      <g>
        <path class="cls-2" d="M275.89,155.22c21.61-1.09,37,7.78,40.25,30.25,5.7,39.4-26.52,44.84-57.75,42.75l1.25-69.75c.47-.99,14.36-3.16,16.25-3.25Z"/>
        <path class="cls-1" d="M273.89,167.22c21.23-.54,29.39,12.68,26.75,32.75-1.88,14.3-15.29,14.98-27,15.5l.25-48.25Z"/>
      </g>
      <g>
        <path class="cls-2" d="M136.39,154.72c42.36-.94,44,87.15-10.5,72.5-36.5-9.81-25.61-71.69,10.5-72.5Z"/>
        <path class="cls-1" d="M134.89,167.72c19.15-1.03,21.66,30.58,12.75,42.25-6.93,9.08-21.32,6.53-25,0-3.43-6.09-5.35-41.31,12.25-42.25Z"/>
      </g>
      <g>
        <path class="cls-2" d="M336.89,155.72c38.92-5.2,40.14,64.13-11,73.5l-2.75-9.75c10.16-3.18,19.37-9.22,25.5-18l-.75-.75c-35.85,19.03-40.73-41.02-11-45Z"/>
        <path class="cls-1" d="M339.39,167.22c10.1-1.43,18.21,22.02,3.5,24-16.75,2.26-13.59-22.57-3.5-24Z"/>
      </g>
    </g>
  </g>
</svg>