<svg version="1.1" id="Layer_1" xmlns="http://www.w3.org/2000/svg" xmlns:xlink="http://www.w3.org/1999/xlink" width="80" height="80" x="0px" y="0px"
	 viewBox="0 0 80 80" style="enable-background:new 0 0 100 100;" xml:space="preserve">
<style type="text/css">
	.st0{fill:#FFFFFF;}
	.st1{fill:#FCE330;}
	.st2{fill:#84CCF4;}
	.st3{clip-path:url(#SVGID_00000160183332904535878380000006451021064022780837_);fill:#FCE330;}
	.st4{clip-path:url(#SVGID_00000145760706572247068620000018176592417837955742_);fill:#FCE330;}
</style>
<g id="Layer_2">
</g>
<path class="st0" d="M98.88,47.93c0-5.7-13.45-10.54-32.23-12.37C62.48,23.82,51,15.7,37.93,16.38C24.29,17.08,13.39,27.14,11.03,40
	c-6.19,2.21-9.9,4.95-9.9,7.93c0,3.17,4.16,6.08,11.09,8.35c-2.43,1.47-3.83,3.12-3.83,4.88c0,3.9,6.76,7.31,16.88,9.23
	c4.61,2.6,9.98,3.99,15.66,3.7c3.45-0.18,6.71-0.98,9.71-2.25c16.51-0.95,29.01-5.36,29.01-10.67c0-0.89-0.39-1.74-1.04-2.57
	C90.87,56.2,98.88,52.32,98.88,47.93z M66.53,55.25c1.78,0.62,3.28,1.32,4.45,2.08c-1.81,0.29-3.71,0.55-5.69,0.76
	C65.74,57.17,66.17,56.22,66.53,55.25z M9.1,47.93c0-0.99,0.54-1.95,1.47-2.87c0,0.56-0.03,1.11,0,1.67
	c0.08,1.6,0.33,3.15,0.66,4.67C9.86,50.31,9.1,49.14,9.1,47.93z M14.2,61.16c0-0.44,0.14-0.86,0.33-1.28
	c1.44,2.44,3.22,4.64,5.27,6.55C16.29,64.94,14.2,63.13,14.2,61.16z M73.83,61.16c0,3.82-7.82,7.08-18.85,8.4
	c3.61-2.31,6.66-5.39,8.92-9.01c3.29-0.26,6.45-0.61,9.41-1.04C73.63,60.05,73.83,60.6,73.83,61.16z M75.98,56.39
	c-2.13-1.33-5.1-2.5-8.73-3.45c0.81-2.92,1.19-6.01,1.02-9.2c-0.1-1.97-0.4-3.87-0.87-5.71c13.87,1.75,23.5,5.52,23.5,9.9
	C90.9,51.34,85.09,54.38,75.98,56.39z"/>
<g>
	<g>
		<path class="st1" d="M44.01,52.39c-19.68,0-35.63,4.87-35.63,10.87c0,6,15.95,10.87,35.63,10.87s35.63-4.87,35.63-10.87
			C79.64,57.26,63.69,52.39,44.01,52.39z M44.01,72.3c-16.47,0-29.82-4.05-29.82-9.04s13.35-9.04,29.82-9.04s29.82,4.05,29.82,9.04
			S60.48,72.3,44.01,72.3z"/>
		<path class="st1" d="M50,36.85c-26.99,0-48.88,5.9-48.88,13.17C1.12,57.3,23.01,63.2,50,63.2s48.88-5.9,48.88-13.17
			C98.88,42.75,76.99,36.85,50,36.85z M50,60.98c-22.59,0-40.9-4.91-40.9-10.96S27.41,39.07,50,39.07s40.9,4.91,40.9,10.96
			S72.59,60.98,50,60.98z"/>
	</g>
	<circle class="st2" cx="39.42" cy="47.33" r="28.9"/>
	<g>
		<defs>
			<path id="SVGID_1_" d="M6.38,50.39v25.74h75.25V50.39H6.38z M66.17,58.27c-5.51-1.93-13.52-3.05-22.16-3.05
				c-16.74,0-28.47,4.12-28.8,7.88c-1.2-1.83-2.2-3.81-2.96-5.91c6.37-3.55,18.46-5.8,31.76-5.8c8.75,0,16.97,0.94,23.51,2.67
				C67.18,55.51,66.72,56.92,66.17,58.27z"/>
		</defs>
		<clipPath id="SVGID_00000022553609681781576600000004455941942228810654_">
			<use xlink:href="#SVGID_1_"  style="overflow:visible;"/>
		</clipPath>
		<path style="clip-path:url(#SVGID_00000022553609681781576600000004455941942228810654_);fill:#FCE330;" d="M44.01,52.39
			c-19.68,0-35.63,4.87-35.63,10.87c0,6,15.95,10.87,35.63,10.87s35.63-4.87,35.63-10.87C79.64,57.26,63.69,52.39,44.01,52.39z
			 M44.01,72.3c-16.47,0-29.82-4.05-29.82-9.04s13.35-9.04,29.82-9.04s29.82,4.05,29.82,9.04S60.48,72.3,44.01,72.3z"/>
	</g>
	<g>
		<defs>
			<path id="SVGID_00000103227799591194401810000014249389232387993790_" d="M-0.88,34.85V65.2h101.75V34.85H-0.88z M50,40.07
				c-21.77,0-36.54,4.39-39.39,8.52l-0.05,0.02c-0.12-2.64,0.13-5.21,0.68-7.67c9.33-3.21,23.4-5.09,38.76-5.09
				c5.59,0,11.03,0.26,16.26,0.76c0.58,1.46,1.05,2.97,1.39,4.54C62.17,40.45,56.11,40.07,50,40.07z"/>
		</defs>
		<clipPath id="SVGID_00000151519509678631828300000008356239610901808822_">
			<use xlink:href="#SVGID_00000103227799591194401810000014249389232387993790_"  style="overflow:visible;"/>
		</clipPath>
		<path style="clip-path:url(#SVGID_00000151519509678631828300000008356239610901808822_);fill:#FCE330;" d="M50,36.85
			c-26.99,0-48.88,5.9-48.88,13.17C1.12,57.3,23.01,63.2,50,63.2s48.88-5.9,48.88-13.17C98.88,42.75,76.99,36.85,50,36.85z
			 M50,60.98c-22.59,0-40.9-4.91-40.9-10.96S27.41,39.07,50,39.07s40.9,4.91,40.9,10.96S72.59,60.98,50,60.98z"/>
	</g>
</g>
<g>
	<g>
		<path d="M14.95,66.97c-0.19-0.05-0.28-0.07-0.47-0.12c-0.32-0.92-0.49-1.38-0.81-2.3c-0.32,0.75-0.48,1.13-0.81,1.88
			c-0.19-0.05-0.28-0.08-0.47-0.13c-0.48-1.32-0.72-1.99-1.2-3.32c0.24,0.07,0.36,0.1,0.6,0.17c0.34,0.98,0.5,1.47,0.84,2.44
			c0.32-0.79,0.48-1.19,0.81-1.99c0.19,0.05,0.28,0.07,0.47,0.12c0.32,0.97,0.49,1.45,0.81,2.41c0.34-0.8,0.51-1.2,0.85-2
			c0.24,0.06,0.36,0.09,0.61,0.15C15.69,65.37,15.44,65.9,14.95,66.97z"/>
		<path d="M18.21,67.83c-0.95-0.2-1.69-1.11-1.69-1.99c0-0.87,0.73-1.43,1.69-1.22c0.95,0.2,1.69,1.08,1.69,1.95
			C19.9,67.44,19.16,68.04,18.21,67.83z M18.21,65.12c-0.61-0.13-1.06,0.22-1.06,0.87c0,0.65,0.45,1.22,1.06,1.35
			c0.62,0.13,1.06-0.24,1.06-0.89C19.27,65.8,18.83,65.25,18.21,65.12z"/>
		<path d="M21.41,66.62c0,0.69,0,1.03,0,1.71c-0.25-0.05-0.38-0.07-0.63-0.12c0-1.16,0-1.74,0-2.9c0.21,0,0.32,0,0.53,0
			c0.03,0.23,0.05,0.34,0.08,0.57c0.2-0.29,0.65-0.51,1.15-0.42c0,0.26,0,0.38,0,0.64C21.97,65.91,21.41,66.13,21.41,66.62z"/>
		<path d="M23.9,68.83c-0.41-0.06-0.61-0.35-0.61-0.83c0-1.81,0-2.72,0-4.53c0.25,0,0.38,0,0.63,0c0,1.88,0,2.82,0,4.7
			c0,0.22,0.07,0.3,0.2,0.32c0.09,0.01,0.17,0,0.23-0.02c0,0.1,0,0.16,0,0.26C24.24,68.82,24.09,68.86,23.9,68.83z"/>
		<path d="M28.13,69.4c-0.36-0.04-0.54-0.26-0.6-0.55c-0.25,0.3-0.68,0.43-1.11,0.37c-0.82-0.11-1.46-0.92-1.46-1.79
			s0.63-1.49,1.46-1.38c0.42,0.06,0.83,0.27,1.09,0.62c0-1.05,0-1.57,0-2.61c0.25-0.01,0.38-0.02,0.63-0.03c0,1.88,0,2.82,0,4.7
			c0,0.22,0.07,0.3,0.2,0.32c0.09,0.01,0.18-0.01,0.24-0.03c0,0.1,0,0.16,0,0.26C28.47,69.36,28.32,69.42,28.13,69.4z M27.51,67.24
			c-0.16-0.34-0.55-0.64-0.97-0.69c-0.56-0.07-0.94,0.3-0.94,0.98c0,0.68,0.38,1.15,0.94,1.22c0.42,0.05,0.77-0.15,0.97-0.46
			C27.51,67.88,27.51,67.67,27.51,67.24z"/>
		<path d="M32.24,69.82c-0.96-0.07-1.57-0.8-1.57-1.72c0-0.96,0.67-1.52,1.48-1.46c0.77,0.06,1.32,0.64,1.32,1.27
			c0,0.1-0.02,0.22-0.04,0.32c-0.85-0.05-1.28-0.08-2.13-0.15c-0.05,0.47,0.15,1.19,1.12,1.26c0.29,0.02,0.65-0.09,0.9-0.27
			c0.08,0.14,0.13,0.21,0.21,0.35C33.2,69.69,32.73,69.85,32.24,69.82z M32.17,67.09c-0.37-0.03-0.7,0.15-0.81,0.57
			c0.6,0.05,0.9,0.07,1.5,0.11c0,0,0.01-0.03,0.01-0.07C32.86,67.42,32.63,67.13,32.17,67.09z"/>
		<path d="M36.59,69.92c-0.36-0.46-0.54-0.69-0.91-1.15c-0.37,0.43-0.55,0.65-0.91,1.08c-0.28-0.01-0.42-0.02-0.71-0.04
			c0.51-0.57,0.77-0.86,1.28-1.44c-0.49-0.6-0.73-0.9-1.22-1.51c0.28,0.02,0.42,0.02,0.71,0.04c0.35,0.44,0.52,0.66,0.87,1.1
			c0.35-0.41,0.53-0.62,0.88-1.03c0.27,0.01,0.41,0.01,0.68,0.02c-0.48,0.57-0.73,0.85-1.21,1.41c0.51,0.62,0.76,0.93,1.27,1.54
			C37.03,69.94,36.88,69.93,36.59,69.92z"/>
		<path d="M39.75,70.08c-0.43,0-0.84-0.17-1.1-0.49c0,1.05,0,1.57,0,2.62c-0.25,0-0.38,0-0.64-0.01c0-2.06,0-3.09,0-5.15
			c0.21-0.03,0.31-0.05,0.51-0.09c0.03,0.19,0.04,0.29,0.07,0.48c0.25-0.35,0.7-0.55,1.15-0.55c0.83,0,1.47,0.7,1.47,1.57
			S40.58,70.08,39.75,70.08z M38.65,67.96c0,0.42,0,0.63,0,1.06c0.19,0.33,0.55,0.58,0.97,0.58c0.58,0,0.96-0.42,0.96-1.1
			c0-0.68-0.38-1.1-0.96-1.1C39.2,67.39,38.81,67.64,38.65,67.96z"/>
		<path d="M42.76,69.99c-0.42,0.01-0.62-0.23-0.62-0.72c0-1.81,0-2.72,0-4.53c0.25-0.05,0.38-0.07,0.64-0.12c0,1.88,0,2.82,0,4.7
			c0,0.22,0.07,0.29,0.2,0.29c0.09,0,0.17-0.03,0.24-0.06c0,0.1,0,0.16,0,0.26C43.1,69.91,42.96,69.99,42.76,69.99z"/>
		<path d="M45.51,69.92c-0.97,0.06-1.72-0.65-1.72-1.52s0.75-1.63,1.72-1.69c0.97-0.06,1.72,0.61,1.72,1.48
			C47.22,69.07,46.48,69.86,45.51,69.92z M45.51,67.21c-0.62,0.04-1.08,0.52-1.08,1.17c0,0.65,0.46,1.09,1.08,1.06
			c0.63-0.04,1.08-0.54,1.08-1.19C46.59,67.59,46.14,67.17,45.51,67.21z"/>
		<path d="M48.74,67.84c0,0.69,0,1.03,0,1.71c-0.25,0.02-0.38,0.03-0.64,0.06c0-1.16,0-1.74,0-2.9c0.21-0.06,0.32-0.08,0.53-0.14
			c0.03,0.22,0.05,0.33,0.08,0.55c0.2-0.35,0.65-0.68,1.16-0.73c0,0.26,0,0.38,0,0.64C49.31,66.97,48.74,67.34,48.74,67.84z"/>
		<path d="M51.93,69.32c-0.95,0.12-1.56-0.5-1.56-1.41c0-0.96,0.67-1.65,1.48-1.75c0.77-0.09,1.32,0.38,1.32,1.02
			c0,0.1-0.02,0.22-0.04,0.33c-0.85,0.11-1.27,0.17-2.13,0.26c-0.05,0.48,0.15,1.16,1.12,1.04c0.29-0.04,0.65-0.22,0.89-0.44
			c0.08,0.12,0.12,0.19,0.21,0.31C52.88,69.01,52.42,69.26,51.93,69.32z M51.85,66.61c-0.36,0.04-0.69,0.29-0.81,0.73
			c0.6-0.07,0.9-0.1,1.49-0.18c0,0,0.01-0.04,0.01-0.07C52.55,66.8,52.31,66.56,51.85,66.61z"/>
		<path d="M56.5,68.62c-0.49,0.08-0.74-0.19-0.74-0.84c0-0.66,0-0.99,0-1.65c-0.18,0.03-0.27,0.04-0.45,0.07c0-0.17,0-0.25,0-0.42
			c0.18-0.03,0.27-0.04,0.45-0.07c0-0.33,0-0.49,0-0.81c0.25-0.08,0.38-0.12,0.63-0.21c0,0.37,0,0.55,0,0.92
			c0.3-0.05,0.45-0.08,0.75-0.13c0,0.17,0,0.25,0,0.42c-0.3,0.05-0.45,0.08-0.75,0.13c0,0.66,0,1,0,1.66c0,0.33,0.09,0.47,0.34,0.43
			c0.2-0.03,0.34-0.13,0.43-0.21c0.03,0.12,0.05,0.18,0.09,0.31C57.08,68.39,56.81,68.57,56.5,68.62z"/>
		<path d="M59.55,68.11c-0.95,0.19-1.7-0.41-1.7-1.28c0-0.87,0.74-1.73,1.7-1.93c0.95-0.19,1.69,0.37,1.69,1.25
			C61.24,67.02,60.5,67.92,59.55,68.11z M59.55,65.39c-0.61,0.12-1.07,0.67-1.07,1.32c0,0.65,0.46,1.03,1.07,0.91
			c0.62-0.12,1.07-0.69,1.07-1.34C60.61,65.63,60.16,65.27,59.55,65.39z"/>
		<path d="M64.96,66.81c-0.37,0.09-0.55-0.07-0.6-0.41c-0.16,0.33-0.67,0.76-1.16,0.88c-0.79,0.19-1.09-0.3-1.09-1.03
			c0-0.71,0-1.06,0-1.77c0.25-0.06,0.38-0.09,0.62-0.14c0,0.7,0,1.04,0,1.74c0,0.56,0.23,0.76,0.67,0.65
			c0.42-0.1,0.95-0.61,0.95-1.1c0-0.67,0-1.01,0-1.69c0.25-0.06,0.37-0.09,0.62-0.16c0,0.94,0,1.41,0,2.35
			c0,0.22,0.07,0.28,0.2,0.24c0.09-0.02,0.17-0.07,0.23-0.11c0,0.1,0,0.16,0,0.26C65.29,66.66,65.15,66.77,64.96,66.81z"/>
		<path d="M66.78,64.53c0,0.69,0,1.03,0,1.71c-0.25,0.07-0.37,0.1-0.62,0.17c0-1.16,0-1.74,0-2.9c0.21-0.09,0.31-0.14,0.52-0.24
			c0.03,0.21,0.05,0.32,0.08,0.53c0.2-0.38,0.64-0.8,1.13-0.94c0,0.26,0,0.38,0,0.64C67.34,63.57,66.78,64.04,66.78,64.53z"/>
	</g>
</g>
<g>
	<path d="M25.97,42.01l4.1,9.95l6.19-16.67h-3.29v-0.86h6.57v0.86h-2.33l-8.34,22.27h-0.59l-4.32-10.47l-4.21,10.47h-0.62
		l-9.07-22.27H7.53v-0.86h23.58v0.86h-2.43L25.97,42.01z M21,52.16l2.48-6.24l-4.35-10.64h-5.01L21,52.16z M23.24,35.28l2.28,5.55
		l2.24-5.55H23.24z"/>
	<path d="M55.78,44.15l8.73,12.02h2.83v0.86H55.98v-0.86h3.86l-6.49-8.95l-7.08,8.95h4.42v0.86h-8.93v-0.86h3.42l7.59-9.68
		l-8.14-11.21h-2.87v-0.86h11.26v0.86h-3.73l5.9,8.08l6.42-8.08h-3.88v-0.86h8.19v0.86h-3.19L55.78,44.15z"/>
</g>
</svg>
